<?xml version="1.0" encoding="UTF-8" standalone="no"?>
<!-- Generator: Adobe Illustrator 20.1.0, SVG Export Plug-In . SVG Version: 6.00 Build 0)  -->

<svg
   version="1.1"
   id="Layer_1"
   x="0px"
   y="0px"
   viewBox="0 0 960 300.2"
   style="enable-background:new 0 0 960 300.2;"
   xml:space="preserve"
   sodipodi:docname="logo.svg"
   inkscape:version="1.1.1 (3bf5ae0d25, 2021-09-20)"
   xmlns:inkscape="http://www.inkscape.org/namespaces/inkscape"
   xmlns:sodipodi="http://sodipodi.sourceforge.net/DTD/sodipodi-0.dtd"
   xmlns="http://www.w3.org/2000/svg"
   xmlns:svg="http://www.w3.org/2000/svg"><defs
   id="defs15"><rect
     x="343.23049"
     y="28.747731"
     width="424.24682"
     height="152.45009"
     id="rect5540" /></defs><sodipodi:namedview
   id="namedview13"
   pagecolor="#ffffff"
   bordercolor="#666666"
   borderopacity="1.0"
   inkscape:pageshadow="2"
   inkscape:pageopacity="0.0"
   inkscape:pagecheckerboard="true"
   showgrid="false"
   inkscape:zoom="1.1479167"
   inkscape:cx="512.66788"
   inkscape:cy="149.83666"
   inkscape:window-width="1368"
   inkscape:window-height="842"
   inkscape:window-x="-6"
   inkscape:window-y="-6"
   inkscape:window-maximized="1"
   inkscape:current-layer="Layer_1" />
<style
   type="text/css"
   id="style2">
	.st0{fill:#FFFFFF;}
</style>

<path
   class="st0"
   d="M158.9,39.5h-26.5v51.3h26.5V39.5z M123.7,91.2v-52c0-2.3,0.9-4.2,2.5-5.9c1.6-1.7,3.6-2.5,5.9-2.5h27.1  c2.3,0,4.2,0.8,5.8,2.5c1.7,1.7,2.5,3.6,2.5,5.9v52c0,2.3-0.8,4.3-2.5,5.9c-1.6,1.7-3.6,2.5-5.9,2.5h-27c-2.3,0-4.4-0.8-6-2.5  C124.5,95.5,123.7,93.5,123.7,91.2"
   id="path6" />
<path
   class="st0"
   d="M147.2,0c81.3,0,147.3,65.9,147.3,147.2c0,81.3-65.9,147.2-147.3,147.2C65.9,294.5,0,228.6,0,147.2  C0,65.9,65.9,0,147.2,0z M145.8,7.6c-0.7,0-1.4,0-2.1,0C67.6,8.7,6.1,70.9,6.1,147.3c0,76.5,61.6,138.6,137.8,139.6  c-37.7-0.9-68-31.8-68-69.8c0-38.5,31.3-69.8,69.8-69.8c38.5,0,69.8-31.3,69.8-69.8C215.6,38.9,184.3,7.6,145.8,7.6z M168.7,257.2  c1.2,0,2.3-0.4,3.1-1.3c0.8-0.9,1.3-1.9,1.3-3.1v-22.5c0-1.2-0.4-2.2-1.3-3.1c-0.9-0.9-1.9-1.3-3.1-1.3c-1.2,0-2.2,0.4-3.1,1.3  c-0.9,0.8-1.3,1.9-1.3,3v18.1h-8.7v-60h-21.8c-1.2,0-2.2,0.4-3.1,1.3c-0.9,0.8-1.3,1.9-1.3,3.1c0,1.2,0.4,2.2,1.3,3.1  c0.9,0.8,1.9,1.3,3.1,1.3H147v51.3h-13.3c-1.2,0-2.2,0.4-3.1,1.2c-0.9,0.8-1.2,1.8-1.2,3c0,1.2,0.4,2.3,1.2,3.2  c0.9,0.9,1.9,1.3,3.1,1.3L168.7,257.2L168.7,257.2z"
   id="path8" />

<text
   xml:space="preserve"
   id="text5538"
   style="fill:black;fill-opacity:1;line-height:1.25;stroke:none;font-family:sans-serif;font-style:normal;font-weight:normal;font-size:40px;white-space:pre;shape-inside:url(#rect5540)" /><text
   xml:space="preserve"
   style="font-style:normal;font-variant:normal;font-weight:normal;font-stretch:normal;font-size:120px;line-height:1.25;font-family:'Lucida Bright';-inkscape-font-specification:'Lucida Bright';fill:#000000;fill-opacity:1;stroke:none"
   x="367.6225"
   y="169.00182"
   id="text7328"><tspan
     sodipodi:role="line"
     x="367.6225"
     y="169.00182"
     style="font-style:normal;font-variant:normal;font-weight:normal;font-stretch:normal;font-size:120px;font-family:sans-serif;-inkscape-font-specification:sans-serif;fill:#ffffff"
     id="tspan49791" /></text></svg>
